<svg width="524" height="246" viewBox="0 0 524 246" fill="none" xmlns="http://www.w3.org/2000/svg">
<g clip-path="url(#clip0_79_136)">
<rect width="524" height="246" fill="white"/>
<g clip-path="url(#clip1_79_136)">
<path d="M-4 121.331V229.395L252 230.198L508 231V121.866V13H252H-4V121.331Z" fill="#E8D9A8"/>
<path d="M-148 127.483V348.966H241.5H631V127.483V-93.9999H241.5H-148V127.483ZM116.089 33.927C119.132 35.6907 123.879 38.3977 126.679 39.9153C129.478 41.4739 134.387 44.1809 137.593 45.9445C140.798 47.7082 145.991 50.7023 149.156 52.589C152.28 54.4757 157.717 57.5519 161.166 59.4796C171.147 65.0167 175.366 67.3956 185.347 73.1377L194.719 78.5107L192.366 81.7509C191.068 83.5556 189.851 85.0732 189.688 85.1142C189.486 85.1962 186.564 83.6376 183.156 81.6689C179.789 79.6592 174.027 76.3779 170.416 74.3682C166.805 72.3174 160.557 68.7491 156.54 66.4522C152.483 64.1143 145.91 60.3819 141.893 58.1671C137.877 55.9933 129.113 51.1125 122.459 47.339C115.765 43.6067 110.206 40.5305 110.084 40.5305C109.922 40.5305 108.218 41.4739 106.189 42.6223C104.201 43.7707 99.8194 46.1906 96.4518 48.0363C93.1248 49.841 85.6188 54.1066 79.8169 57.4698C74.015 60.8331 65.6975 65.5909 61.3562 68.0108C57.0149 70.4307 51.0913 73.794 48.17 75.4756C45.2894 77.1572 41.4349 79.331 39.6497 80.3154C37.8645 81.2998 35.2679 82.8173 33.8478 83.6787C32.4683 84.54 31.17 85.2372 30.9671 85.2372C30.7643 85.2372 29.5065 83.7197 28.127 81.874L25.6521 78.5517L29.4254 76.46C31.454 75.3115 35.3084 73.0967 37.9457 71.5381L42.6927 68.7081V58.2902V47.8722L47.4803 47.9953L52.2273 48.1183V55.6242C52.2273 59.7257 52.3491 63.0889 52.5519 63.0889C52.9576 63.0889 64.4398 56.5675 69.3897 53.4914C71.4995 52.2199 75.5973 49.841 78.5186 48.2414C81.4804 46.6418 86.4303 43.8938 89.5544 42.1711C92.6785 40.4485 97.1416 37.9875 99.4948 36.7571C101.848 35.4856 105.134 33.6399 106.798 32.6145C108.461 31.5891 110.003 30.7278 110.206 30.7278C110.409 30.6868 113.046 32.1223 116.089 33.927ZM54.3777 41.6789L54.4994 44.2219L46.7094 44.1398L38.96 44.0168V41.761C38.96 40.5305 38.96 39.3821 39.0006 39.177C39.0411 39.0129 42.4493 38.9309 46.6688 38.9719L54.256 39.095L54.3777 41.6789ZM114.831 49.7179C117.225 50.9074 119.619 52.3019 120.187 52.7531L121.201 53.5734L119.781 56.3624C118.889 58.0851 117.955 59.3566 117.347 59.6847C116.576 60.0128 114.628 60.0538 109.638 59.7667C101.726 59.2745 100.671 58.9054 99.1296 55.9933L98.0747 54.0656L99.0891 53.2453C100.387 52.2199 109.273 47.5441 109.963 47.5031C110.247 47.5031 112.438 48.4875 114.831 49.7179ZM129.275 57.4698C131.913 58.9054 134.225 60.3409 134.387 60.669C134.753 61.3253 133.049 67.7237 132.115 69.1182C131.588 69.9385 131.182 70.0616 128.829 70.0616C126.192 70.0616 126.111 70.0205 124.488 68.2979C123.555 67.3545 122.216 65.3858 121.445 63.9503C120.106 61.3663 120.106 61.3253 120.796 59.8487C122.094 57.0597 123.473 54.8859 123.96 54.8859C124.244 54.8859 126.597 56.0753 129.275 57.4698ZM96.2084 57.1417C98.0747 59.3155 98.1559 60.2179 96.6547 64.1143C95.9244 66.001 94.9912 68.0928 94.5855 68.7901C93.8957 69.9795 93.6523 70.0616 91.5831 70.0616C89.595 70.0616 89.1893 69.8975 87.7286 68.585C85.6188 66.6573 83.2656 63.3761 83.2656 62.3917C83.2656 61.7765 84.6045 60.9151 88.8647 58.6593C91.9076 57.0597 94.5449 55.7062 94.6666 55.7062C94.8289 55.7062 95.5186 56.3624 96.2084 57.1417ZM111.22 62.2686C117.55 62.7198 117.55 62.7198 119.903 67.1905L121.485 70.0616L109.76 69.9795C99.4542 69.8565 98.0747 69.7745 97.953 69.2002C97.7501 68.1749 99.4948 63.8682 100.55 62.8018C101.645 61.6944 102.578 61.6534 111.22 62.2686ZM143.232 65.5909C146.072 67.1905 148.629 68.7491 148.953 69.0362C149.683 69.7745 149.318 70.6768 146.438 75.0654C144.409 78.1826 144.328 78.2646 142.705 78.2646C141.772 78.2646 140.839 78.0596 140.555 77.7725C140.271 77.4853 140.068 76.0088 140.068 74.0811C140.068 70.5127 139.743 70.0616 137.065 70.0616C135.402 70.0616 135.442 70.2256 136.213 66.8624C136.822 64.3194 137.471 62.6788 137.877 62.6788C137.958 62.6788 140.392 63.9913 143.232 65.5909ZM80.5878 64.5655C81.1558 64.7706 84.0771 69.1592 84.0771 69.8155C84.0771 69.9385 83.3062 70.0616 82.373 70.0616C79.5735 70.0616 79.4518 70.3077 79.2083 75.0654L79.0055 79.29L74.6642 79.4131C69.5925 79.5361 69.7548 79.6592 68.0913 74.6963C67.2799 72.3174 67.1987 71.6201 67.6045 71.0869C68.2131 70.2256 78.3563 64.3604 79.2895 64.3194C79.6546 64.3194 80.2226 64.4425 80.5878 64.5655ZM157.636 73.4248C160.07 74.8193 162.545 76.3369 163.113 76.8291L164.168 77.7314L161.977 82.5712C160.76 85.1962 159.462 87.5341 159.056 87.7392C158.691 87.9443 157.027 88.1083 155.323 88.1083C152.321 88.1083 152.321 88.1083 151.144 86.5497C148.953 83.7607 147.371 80.7256 147.371 79.4541C147.371 77.7725 151.672 70.8819 152.726 70.8819C152.97 70.8819 155.201 72.0303 157.636 73.4248ZM64.6832 74.0401C65.657 75.2295 67.0365 79.4541 67.0365 81.2588C67.0365 83.9248 64.3181 91.6767 63.1415 92.497C61.9648 93.2763 57.3395 93.1122 56.3252 92.2509C55.6355 91.6767 52.4302 81.956 52.4302 80.4385C52.4302 79.7822 53.0794 79.167 54.7834 78.1416C57.6641 76.3369 63.3037 73.3428 63.75 73.3428C63.9123 73.3428 64.3586 73.6709 64.6832 74.0401ZM137.228 93.6454V113.948H109.841H82.4542V93.9325C82.4542 82.8994 82.5759 73.7529 82.7382 73.6299C82.8599 73.4658 95.1941 73.3428 110.125 73.3428H137.228V93.6454ZM170.335 80.8076L173.337 82.5302V92.0868C173.337 99.4286 173.216 101.643 172.851 101.684C171.065 101.848 166.116 101.479 165.547 101.192C164.736 100.741 162.464 93.8505 162.099 90.7743C161.936 89.0517 162.099 88.1493 163.194 85.5654C164.371 82.6123 166.521 79.0849 167.089 79.0849C167.252 79.0849 168.712 79.8642 170.335 80.8076ZM144.368 81.7099C145.707 82.6943 149.927 89.7079 149.886 90.9384C149.846 92.3739 147.939 97.2137 146.884 98.5672C146.194 99.4696 145.788 99.5926 143.557 99.5926C142.137 99.5926 140.839 99.3876 140.555 99.1004C140.189 98.7313 140.068 96.2294 140.068 90.3642C140.068 84.499 140.189 81.997 140.555 81.6279C141.204 80.9717 143.354 81.0127 144.368 81.7099ZM51.6593 86.7548C53.7285 93.1942 53.8097 95.122 52.2273 100.536C50.5638 106.36 50.5638 106.36 45.4517 106.36H41.2726L41.1509 96.2704L41.0698 86.1396L45.0054 83.8837C47.1963 82.6123 49.1844 81.5869 49.4684 81.5869C49.7524 81.5459 50.6856 83.8017 51.6593 86.7548ZM78.5186 82.8994C79.1678 83.3505 79.2083 84.2119 79.1272 91.1845L79.0055 98.9774L74.7047 99.1004C70.6069 99.2235 70.3229 99.1415 69.1868 98.1981C68.5376 97.6239 67.5639 96.3524 67.0365 95.368L66.1033 93.6044L67.6045 89.0107C68.4565 86.5087 69.4708 84.0068 69.9171 83.4326C70.688 82.4482 70.972 82.3662 74.299 82.3662C76.4899 82.3662 78.1129 82.5712 78.5186 82.8994ZM159.218 91.6767C159.989 92.579 161.977 99.7977 161.977 101.725C161.977 104.186 158.528 108.206 156.419 108.206C155.242 108.206 149.521 102.833 149.156 101.438C148.872 100.331 151.185 94.1376 152.524 92.2919C153.457 91.0614 153.66 90.9794 156.053 90.9794C157.96 90.9794 158.772 91.1435 159.218 91.6767ZM63.8718 96.3934C64.1963 96.6805 65.2512 97.993 66.1844 99.2645L67.9291 101.602L67.4828 106.073C66.793 112.964 66.5901 113.292 62.2488 114.809C58.9624 115.958 58.3538 115.835 56.7715 113.825C54.7834 111.364 53.2417 108.78 52.9982 107.468C52.7548 106.196 54.824 99.3055 56.0818 97.2137C56.8932 95.9012 56.8932 95.9012 60.0579 95.9012C62.0054 95.9012 63.466 96.1063 63.8718 96.3934ZM262.76 97.1727C265.641 98.2801 268.035 100.413 269.252 102.833C270.307 104.966 271.524 109.477 271.524 111.323V112.594L267.588 113.251C261.624 114.317 261.949 114.399 261.705 111.282C261.462 108.411 260.448 106.237 259.027 105.499C257.689 104.843 255.701 105.376 254.727 106.688C253.915 107.837 253.875 108.247 253.875 124.12C253.875 139.049 253.956 140.526 254.605 141.92C255.579 143.848 257.405 144.71 258.865 143.848C260.488 142.946 261.381 141.018 261.705 137.696C261.989 134.784 262.03 134.661 263.004 134.702C265.154 134.784 271.281 135.686 271.565 135.973C271.686 136.178 271.686 137.409 271.524 138.762C270.307 148.565 265.925 152.913 257.323 152.913C252.82 152.913 250.223 151.887 247.667 149.057C245.517 146.719 244.381 144.135 243.975 140.608C243.65 138.188 243.731 114.358 244.097 107.796C244.34 103.079 247.302 98.8954 251.765 97.0497C254.321 96.0243 259.88 96.0653 262.76 97.1727ZM330.476 97.6649C333.601 99.2235 335.629 101.684 336.765 105.212C338.307 110.134 338.388 109.97 333.114 110.749C330.598 111.118 328.488 111.364 328.367 111.282C328.285 111.159 328.042 110.134 327.88 108.944C327.352 105.499 325.445 104.268 322.281 105.376C320.049 106.155 319.075 109.682 320.374 112.225C320.942 113.333 324.025 116.409 330.111 121.905C336.522 127.688 339.118 133.881 338.104 141.141C337.049 148.811 332.262 152.913 324.431 152.913C316.235 152.913 311.813 148.77 310.312 139.706C310.068 138.27 310.109 138.147 311.164 137.901C311.772 137.778 313.111 137.409 314.126 137.081C315.87 136.588 318.751 135.973 319.603 135.932C319.806 135.891 320.009 136.958 320.09 138.229C320.252 142.987 322.768 145.243 326.054 143.684C327.19 143.11 327.596 142.618 327.961 141.264C328.529 139.172 328.204 135.809 327.271 133.84C326.541 132.241 321.631 127.073 316.316 122.315C313.76 119.977 312.787 118.747 311.691 116.573C310.474 114.03 310.312 113.415 310.312 110.052C310.271 100.864 315.18 96.1473 324.512 96.4344C327.555 96.5165 328.569 96.7216 330.476 97.6649ZM297.856 100.413C299.398 109.19 300.858 117.475 301.345 120.469C301.67 122.356 302.035 124.202 302.116 124.571C302.238 124.94 302.522 126.417 302.725 127.893C302.927 129.37 303.942 135.153 304.956 140.772C305.97 146.391 306.822 151.231 306.822 151.559C306.822 152.297 297.125 152.338 296.923 151.559C296.841 151.313 296.436 148.77 295.989 145.94L295.219 140.813H291.202C286.495 140.813 287.023 140.157 285.846 147.376L285.116 151.887L280.166 152.01C274.648 152.133 274.932 152.297 275.622 149.221C275.865 148.196 276.312 145.858 276.636 143.971C276.961 142.126 277.488 139.049 277.813 137.122C279.395 128.098 279.72 126.212 280.247 122.971C280.531 121.044 281.059 117.926 281.424 115.999C282.519 109.682 284.507 97.87 284.507 97.5008C284.507 97.0087 296.355 96.8446 296.923 97.3368C297.207 97.5419 297.612 98.9364 297.856 100.413ZM363.016 97.1727C363.219 97.4188 364.963 106.524 367.073 118.665C368.331 125.719 368.98 129.411 369.508 132.2C369.832 133.758 370.441 137.45 370.928 140.403C371.374 143.315 371.942 146.555 372.145 147.581C372.348 148.606 372.591 150.042 372.713 150.739L372.956 152.092H367.966H362.975L362.245 147.252C361.109 139.788 361.758 140.608 357.092 140.608C354.212 140.608 352.994 140.772 352.913 141.1C352.751 141.592 351.818 146.883 351.25 150.534L351.006 152.092H346.178C340.66 152.092 340.985 152.338 341.715 148.401C342.648 143.315 346.34 122.438 348.166 111.692C348.856 107.837 349.667 103.079 349.992 101.069C350.357 99.0594 350.641 97.3778 350.641 97.2958C350.641 97.2137 352.791 97.0907 355.429 97.0497C361.718 96.8856 362.732 96.9266 363.016 97.1727ZM79.2083 102.833C79.4112 103.284 79.6141 106.401 79.6141 109.929C79.6141 114.686 79.7358 116.45 80.1821 117.024C80.8718 117.968 80.3038 119.526 79.1678 119.895C78.3969 120.141 71.9863 116.081 70.4851 114.358C69.5925 113.333 69.3897 110.011 69.9983 105.622C70.4851 102.3 70.8503 102.054 75.151 102.054C78.3157 102.054 78.8432 102.136 79.2083 102.833ZM144.977 102.751C146.6 103.079 153.294 109.354 154.106 111.364C154.796 112.923 154.877 120.346 154.268 120.716C154.025 120.88 151.793 120.757 149.278 120.51C140.514 119.567 140.311 119.362 140.149 110.134C140.027 104.186 140.068 103.489 140.717 102.997C141.528 102.423 142.908 102.341 144.977 102.751ZM172.769 104.925C173.216 105.335 173.337 107.304 173.337 115.835V126.253L172.445 126.212C171.917 126.212 168.428 125.227 164.614 124.038L157.717 121.864L157.595 117.598C157.514 115.26 157.595 112.923 157.717 112.389C158.001 111.159 163.478 105.376 165.02 104.638C166.481 103.981 171.836 104.186 172.769 104.925ZM49.509 108.862C50.6856 109.19 56.0818 117.27 56.0818 118.747C56.0818 119.854 55.3515 123.012 54.0125 127.565C53.3634 129.739 52.9576 130.477 52.1056 130.928C50.8479 131.585 42.3275 132.2 41.5567 131.667C41.1915 131.421 41.0698 128.837 41.1509 120.264L41.2726 109.231L43.707 108.985C47.4397 108.616 48.4946 108.616 49.509 108.862ZM70.4851 117.844C74.9076 120.88 77.91 123.382 78.1534 124.325C78.8026 126.868 78.5592 127.155 75.3539 127.647C74.4613 127.811 71.0532 128.59 67.7668 129.411C62.1677 130.805 61.762 130.969 61.762 131.872C61.762 132.405 61.478 132.938 61.1534 133.061C59.6522 133.635 56.0818 130.887 56.0818 129.165C56.0818 127.483 58.9219 119.403 59.8145 118.583C60.6665 117.762 65.4541 116.081 67.077 116.04C67.4422 115.999 68.984 116.819 70.4851 117.844ZM97.0198 117.762C97.7501 118.665 98.0747 123.956 97.4256 124.448C97.101 124.694 94.7478 125.104 92.1917 125.391C89.6356 125.678 86.3492 126.089 84.9291 126.335C82.5353 126.745 82.2513 126.704 81.7644 126.007C80.7095 124.571 81.9673 121.044 84.6045 118.132C85.3754 117.27 85.7406 117.229 91.015 117.229C95.1129 117.229 96.6547 117.352 97.0198 117.762ZM117.347 117.844C117.955 118.583 117.631 123.176 116.901 124.038C116.292 124.817 101.523 124.858 100.793 124.12C100.266 123.587 100.103 118.009 100.59 117.516C100.712 117.352 104.445 117.229 108.827 117.229C115.521 117.229 116.941 117.352 117.347 117.844ZM137.512 117.557C137.755 117.721 138.201 118.419 138.445 119.075C138.851 120.1 138.729 120.592 137.633 122.725C136.944 124.12 136.051 125.678 135.645 126.171L134.956 127.155L128.058 126.089C124.285 125.473 120.958 124.94 120.714 124.817C120.065 124.612 119.984 119.198 120.593 118.009C120.998 117.27 121.526 117.229 129.032 117.229C133.414 117.229 137.228 117.393 137.512 117.557ZM151.793 123.587C152.24 123.997 152.28 124.899 152.037 127.647C151.793 130.682 151.672 131.174 151.104 131.01C150.698 130.887 147.898 130.231 144.774 129.575C141.691 128.878 139.013 128.18 138.81 128.057C137.877 127.483 139.053 124.571 140.839 123.053C141.691 122.315 150.941 122.766 151.793 123.587ZM166.034 127.852C171.065 129.247 179.261 131.585 184.292 133.02C189.323 134.456 199.466 137.327 206.81 139.419C214.194 141.51 220.28 143.274 220.361 143.315C220.564 143.479 219.509 148.975 219.144 149.385C218.982 149.549 217.968 149.426 216.872 149.057C214.56 148.278 195.531 142.987 179.626 138.721C170.416 136.219 161.734 133.799 156.216 132.159C155.607 131.954 155.485 131.421 155.485 128.426C155.485 125.268 155.567 124.94 156.216 125.145C156.581 125.268 161.003 126.499 166.034 127.852ZM124.893 128.344C131.831 129.37 133.698 129.862 133.901 130.846C133.982 131.215 133.617 133.061 133.13 134.866L132.237 138.229L129.762 137.983C122.905 137.245 110.693 136.999 100.103 137.409C93.8551 137.655 87.9315 137.901 86.9172 137.901L85.0914 137.942L84.1988 134.661C83.1033 130.518 83.1033 130.067 84.0771 129.534C84.9697 129.042 91.3396 128.098 97.669 127.524C104.161 126.909 117.915 127.319 124.893 128.344ZM80.3849 130.928C80.953 131.626 82.3324 137.983 82.0079 138.311C81.7644 138.557 66.4684 143.069 65.9004 143.069C65.6164 143.069 64.0341 136.055 63.9935 134.661C63.9935 134.456 65.8193 133.758 68.0508 133.143C79.046 130.026 79.5735 129.944 80.3849 130.928ZM142.462 132.241C144.612 132.815 148.182 133.84 150.414 134.497C152.645 135.194 154.796 135.85 155.201 135.932C155.607 136.055 155.891 136.547 155.891 137.122C155.891 137.901 154.39 143.438 154.065 143.807C154.025 143.848 152.726 143.52 151.185 143.028C149.643 142.536 145.504 141.346 141.975 140.403C138.445 139.419 135.442 138.516 135.28 138.393C134.996 138.106 135.848 134.497 136.66 132.487C136.944 131.749 137.471 131.174 137.877 131.174C138.242 131.174 140.311 131.667 142.462 132.241ZM58.8407 135.399C61.9243 137.409 61.6808 136.958 62.3706 142.331C62.5734 143.971 62.4923 144.299 61.8025 144.669C60.4231 145.448 59.003 145.202 58.2727 144.094C57.2584 142.536 54.4183 134.333 54.6617 133.717C54.9457 132.979 55.3515 133.143 58.8407 135.399ZM51.8622 135.153C52.1462 135.44 53.1199 137.942 54.0531 140.608C56.0818 146.391 56.0818 146.719 53.3634 151.559C50.5233 156.645 50.361 156.768 45.2894 156.932L41.0698 157.096V145.817V134.497L44.8431 134.333C49.509 134.169 51.2942 134.374 51.8622 135.153ZM165.223 139.09L169.483 140.403V147.17V153.938L165.71 154.061L161.977 154.184L159.137 151.354C156.662 148.934 156.297 148.401 156.297 147.088C156.297 145.571 158.366 139.254 159.218 138.27C159.827 137.532 160.395 137.614 165.223 139.09ZM178.409 143.028C182.791 144.381 183.075 144.751 183.075 149.467C183.075 154.143 183.034 154.184 177.598 154.061L173.135 153.938L173.013 148.442C172.972 145.407 173.013 142.659 173.094 142.372C173.378 141.633 174.23 141.715 178.409 143.028ZM194.03 147.827C197.925 149.057 201.292 150.247 201.455 150.411C201.657 150.616 201.739 151.477 201.657 152.338L201.536 153.938L194.273 154.061C189.283 154.143 186.848 154.02 186.483 153.692C185.55 152.913 185.753 145.53 186.686 145.53C186.808 145.53 190.135 146.555 194.03 147.827ZM66.225 156.973C66.225 165.135 66.1438 166.407 65.5758 166.612C64.1963 167.145 58.3133 166.858 57.3801 166.202C56.1223 165.34 53.2417 159.393 53.2417 157.711C53.2417 156.85 53.8503 155.333 54.9457 153.487C58.2321 147.95 58.6784 147.622 63.1009 147.581H66.225V156.973ZM158.041 153.897C159.38 155.045 160.679 156.481 161.003 157.096C161.652 158.327 161.815 167.473 161.247 168.416C161.003 168.786 159.827 168.909 156.865 168.827L152.848 168.704L152.726 159.106L152.645 149.508L154.146 150.698C154.999 151.313 156.743 152.79 158.041 153.897ZM148.182 167.063V184.125L144.45 184.002L140.717 183.879L137.187 179.901C135.24 177.727 132.927 174.774 131.994 173.338C128.748 168.416 125.015 159.926 124.041 155.25L123.839 154.143H118.158H112.478L112.397 182.526L112.275 210.949L109.76 211.072L107.204 211.195V182.649V154.143H101.605H96.0055L94.91 158.04C92.7191 165.873 88.3778 173.707 82.373 180.475L79.1678 184.084H75.1105H71.0937V167.063V150.042H109.638H148.182V167.063ZM193.015 173.625V190.032H178.815H164.614L164.493 174.036C164.452 165.258 164.493 157.793 164.614 157.506C164.736 157.096 167.82 157.014 178.896 157.096L193.015 157.219V173.625ZM201.941 157.916C202.063 158.45 202.104 161.157 202.063 163.987L201.941 169.114H199.101H196.261L196.139 163.618C196.099 160.582 196.139 157.834 196.221 157.547C196.383 157.178 197.276 157.014 199.061 157.014C201.495 157.014 201.739 157.096 201.941 157.916ZM50.4421 159.926C51.4565 160.459 54.8646 167.514 54.8646 169.114C54.8646 171.246 51.0507 179.121 49.8741 179.327C48.0889 179.696 42.855 179.942 41.9624 179.696L41.0698 179.491L41.1509 169.565L41.2726 159.68L44.1128 159.434C47.1151 159.188 49.3872 159.352 50.4421 159.926ZM303.09 166.653C303.252 166.817 303.333 172.846 303.211 174.323C303.171 174.528 300.087 174.651 296.273 174.651H289.376V181.418V188.186H294.853H300.371L300.25 192.328L300.128 196.471L294.853 196.512L289.579 196.594L289.457 204.264L289.376 211.975H296.233H303.13L303.252 215.953C303.333 218.168 303.333 220.096 303.252 220.26C303.171 220.465 297.856 220.588 291.364 220.588H279.639V193.6C279.639 178.752 279.72 166.489 279.801 166.407C280.044 166.161 302.846 166.366 303.09 166.653ZM341.066 166.612C348.653 168.088 351.858 173.092 351.858 183.428C351.858 189.498 351.169 192.492 349.099 195.569C346.908 198.85 344.393 200.039 338.834 200.408L334.615 200.696L334.534 210.539L334.453 220.383L329.584 220.506L324.674 220.629V193.559V166.489L328.651 166.325C330.801 166.284 333.803 166.161 335.305 166.12C336.765 166.079 339.362 166.325 341.066 166.612ZM367.601 193.436L367.682 220.629L362.732 220.506L357.741 220.383V193.518V166.653L359.161 166.448C359.932 166.325 362.123 166.243 364.03 166.243H367.479L367.601 193.436ZM398.03 170.426L398.152 174.651H391.214H384.317V181.418V188.145L389.713 188.268L395.068 188.391L395.19 192.369L395.312 196.348L389.916 196.471L384.52 196.594L384.398 204.264L384.317 211.975H391.214H398.152L398.03 216.158L397.909 220.383H386.224H374.539L374.579 193.559C374.579 178.834 374.701 166.571 374.823 166.407C374.944 166.202 380.138 166.079 386.467 166.12L397.909 166.243L398.03 170.426ZM422.942 166.817C426.878 168.088 430.326 171.944 431.422 176.25C432.112 178.957 432.396 203.362 431.787 207.627C430.894 214.272 427.933 218.25 422.82 219.768C420.427 220.506 419.128 220.588 412.637 220.506L405.212 220.383L405.09 193.723C405.049 179.039 405.09 166.817 405.212 166.53C405.455 165.832 420.67 166.038 422.942 166.817ZM455.968 166.612C459.985 167.473 463.028 169.893 464.489 173.338C466.193 177.399 466.72 184.207 465.706 189.088C465.016 192.369 464.326 193.764 462.42 195.774L460.999 197.332L461.811 200.244C462.298 201.844 462.906 203.895 463.231 204.797C463.515 205.699 464.61 209.35 465.665 212.959C466.72 216.527 467.653 219.727 467.775 220.014C467.937 220.506 467.045 220.588 462.744 220.588H457.47L455.644 213.902C454.63 210.252 453.372 205.535 452.885 203.444L451.952 199.67H450.41H448.828L448.746 210.006L448.625 220.383H443.756H438.887L438.766 193.723C438.725 179.039 438.766 166.817 438.887 166.53C439.131 165.832 452.601 165.873 455.968 166.612ZM492.809 166.694C493.174 167.022 493.458 167.432 493.458 167.555C493.458 167.678 494.391 173.215 495.527 179.901C496.622 186.627 497.84 193.723 498.164 195.774C498.529 197.783 499.341 202.582 499.99 206.438C502.019 218.086 502.303 219.973 502.1 220.26C502.019 220.465 499.868 220.588 497.312 220.588C491.957 220.588 492.565 221.285 491.632 214.436C491.267 211.852 490.821 209.555 490.658 209.391C490.496 209.227 488.711 209.104 486.723 209.186L483.112 209.309L482.584 212.795C482.3 214.723 481.895 217.266 481.651 218.414L481.245 220.588H476.377C473.618 220.588 471.548 220.424 471.548 220.219C471.548 219.85 472.279 215.83 473.78 207.668C474.551 203.403 476.174 194.051 478.243 181.828C479.014 177.276 480.393 169.401 480.718 167.801L480.961 166.489L486.317 166.325C489.238 166.284 491.754 166.161 491.916 166.12C492.078 166.079 492.484 166.325 492.809 166.694ZM265.844 167.596C269.617 169.606 271.889 172.764 272.701 177.317C272.985 178.752 273.147 185.274 273.147 193.477C273.147 210.58 272.741 212.795 269.13 216.609C266.128 219.85 263.247 220.547 253.185 220.588H245.963V193.477V166.407L255.011 166.53C263.531 166.653 264.099 166.694 265.844 167.596ZM66.1438 179.45L66.0221 189.621L62.7357 189.744C59.4899 189.867 59.4087 189.826 58.151 188.555C57.4207 187.858 56.0412 185.848 55.0269 184.125C53.6474 181.746 53.2417 180.721 53.404 179.86C53.7691 177.973 56.8526 171.657 57.9887 170.467C59.003 169.401 59.287 169.319 62.6546 169.319H66.225L66.1438 179.45ZM161.368 180.803V189.621H157.108H152.848L152.726 180.68L152.645 171.739L156.987 171.862L161.368 171.985V180.803ZM201.941 180.393V188.391H199.101H196.261L196.139 180.803C196.099 176.661 196.139 173.01 196.261 172.682C196.383 172.313 197.194 172.19 199.182 172.272L201.941 172.395V180.393ZM50.1987 182.526C51.2942 183.018 55.5137 189.252 55.96 191.016C56.1629 191.795 55.7978 192.903 54.6211 195.117C52.2679 199.711 52.3491 199.67 47.3992 199.67C45.0459 199.67 42.6927 199.506 42.1247 199.26L41.0698 198.85V190.688C41.0698 184.535 41.1915 182.444 41.5972 182.321C42.6116 181.91 49.1844 182.034 50.1987 182.526ZM79.7763 190.319C80.5472 194.871 82.8599 210.129 82.8599 210.744C82.8599 211.031 81.9673 211.154 80.5472 211.072L78.194 210.949L77.0174 201.803C76.3682 196.799 75.7191 192.698 75.5973 192.698C75.4756 192.698 75.3945 196.84 75.4756 201.926L75.5973 211.154H73.3253H71.0937V198.85V186.545H75.1105H79.1272L79.7763 190.319ZM148.182 198.891V211.195L146.072 211.072L143.922 210.949L144.044 201.803C144.084 195.856 144.003 192.698 143.719 192.698C143.516 192.698 143.314 193.313 143.314 194.01C143.314 194.748 142.867 198.768 142.299 202.91C141.731 207.053 141.285 210.58 141.285 210.785C141.285 210.99 140.271 211.154 139.053 211.154C136.416 211.154 136.457 211.277 137.43 205.822C137.755 203.895 138.526 199.096 139.053 195.158C139.621 191.221 140.189 187.653 140.311 187.242C140.514 186.627 141.041 186.545 144.368 186.545H148.182V198.891ZM201.941 194.953V198.645L198.087 198.563C192.853 198.44 191.149 198.03 190.419 196.758C190.094 196.143 189.972 195.281 190.135 194.625C190.378 193.641 190.581 193.559 192.894 193.436C194.882 193.354 195.45 193.149 195.815 192.492C196.545 191.18 196.91 191.057 199.507 191.139L201.941 191.262V194.953ZM164.087 193.6C166.156 194.871 168.144 197.291 169.118 199.875C169.726 201.557 169.726 201.721 168.509 205.74C167.779 208.037 166.927 210.17 166.602 210.539C166.116 211.031 164.939 211.154 160.841 211.154C158.001 211.154 154.999 211.031 154.187 210.908L152.645 210.621V201.434V192.205L157.433 192.328C161.734 192.492 162.342 192.615 164.087 193.6ZM66.225 201.68C66.225 211.565 66.3467 211.154 63.5878 211.154C60.7476 211.154 59.7333 210.703 58.719 208.94C57.2584 206.438 55.2703 201.352 55.2703 200.203C55.2703 199.055 57.3395 194.871 58.5567 193.559C59.2465 192.821 59.8145 192.698 62.7763 192.698H66.225V201.68ZM187.376 194.461C187.497 194.994 187.538 196.143 187.457 197.045C187.335 198.358 187.051 198.809 185.55 199.875C183.886 201.065 183.643 201.106 179.91 201.024C175.65 200.942 172.891 200.367 171.958 199.301C170.781 197.947 169.605 195.199 169.889 194.338C170.132 193.559 170.457 193.518 178.612 193.518H187.132L187.376 194.461ZM198.655 200.901C200.197 201.065 201.617 201.475 201.779 201.803C201.982 202.09 202.104 204.264 202.063 206.643L201.941 210.949L194.435 211.072C190.297 211.113 186.524 211.072 186.037 210.949C185.185 210.744 185.104 210.498 185.104 207.627C185.104 202.131 186.808 200.49 192.407 200.49C194.314 200.531 197.113 200.696 198.655 200.901ZM50.8073 202.172L52.8765 202.623L54.4588 206.069C57.0555 211.77 57.6235 211.154 49.5901 211.154C45.5734 211.154 42.3275 210.99 41.8407 210.744C41.1509 210.334 41.0698 209.842 41.0698 206.274C41.0698 204.059 41.1915 202.131 41.3538 202.008C41.7595 201.557 48.5352 201.68 50.8073 202.172ZM181.33 203.977C182.223 204.592 182.304 204.838 182.182 207.791L182.061 210.949L175.691 211.072C170.538 211.154 169.28 211.072 169.28 210.621C169.28 209.719 171.268 204.141 171.796 203.444C172.485 202.623 179.87 203.033 181.33 203.977ZM211.882 216.076V218.947H114.304H16.726V216.076V213.205H114.304H211.882V216.076Z" fill="#2F4E56"/>
<path d="M86.1057 93.6452V110.256H97.0604H108.015V93.6452V77.034H97.0604H86.1057V93.6452Z" fill="#2F4E56"/>
<path d="M111.667 93.6455V110.216L122.621 110.339L133.576 110.462V93.7275V77.0343H122.621H111.667V93.6455Z" fill="#2F4E56"/>
<path d="M290.269 116.491C289.863 120.1 288.808 128.631 288.483 131.38C288.362 132.118 288.605 132.2 290.999 132.2C293.555 132.2 293.636 132.159 293.555 131.174C293.433 128.96 292.541 120.921 291.973 117.229C291.648 115.096 291.405 113.087 291.405 112.8C291.405 112.553 291.242 112.307 291.08 112.307C290.877 112.307 290.512 114.194 290.269 116.491Z" fill="#2F4E56"/>
<path d="M356.565 114.645C356.403 115.958 356.037 118.952 355.713 121.331C354.617 129.206 354.374 131.79 354.699 132.118C355.185 132.692 359.77 132.282 359.648 131.667C359.608 131.38 359.364 129.37 359.162 127.155C358.391 119.69 357.376 112.308 357.092 112.308C356.93 112.308 356.687 113.374 356.565 114.645Z" fill="#2F4E56"/>
<path d="M79.6952 166.366C78.5592 169.237 77.4637 172.436 77.2202 173.461C76.6117 176.127 76.3276 179.163 76.6928 179.163C77.2202 179.163 79.5735 173.461 80.3849 170.221C81.2775 166.694 82.1701 161.526 81.9267 161.239C81.8456 161.157 80.8312 163.454 79.6952 166.366Z" fill="#2F4E56"/>
<path d="M137.43 162.346C138.08 165.709 139.824 171.452 141.407 175.143C142.299 177.358 143.111 179.08 143.192 178.998C143.273 178.916 143.111 177.481 142.867 175.84C142.299 172.149 140.271 166.202 138.485 163.166C137.268 161.034 137.187 160.993 137.43 162.346Z" fill="#2F4E56"/>
<path d="M167.657 166.038V171.78H172.526H177.395V166.038V160.295H172.526H167.657V166.038Z" fill="#2F4E56"/>
<path d="M180.235 166.038V171.78H185.104H189.972V166.038V160.295H185.104H180.235V166.038Z" fill="#2F4E56"/>
<path d="M167.657 181.213V186.996L172.445 186.873L177.192 186.75L177.314 181.09L177.435 175.471H172.526H167.657V181.213Z" fill="#2F4E56"/>
<path d="M180.316 181.09L180.438 186.75L185.225 186.873L189.972 186.996V181.213V175.471H185.104H180.194L180.316 181.09Z" fill="#2F4E56"/>
<path d="M334.777 175.102C334.777 175.43 334.777 179.368 334.777 183.879V192.082L336.846 192.205C338.713 192.329 339.037 192.205 340.255 190.975C342.121 189.088 342.851 184.741 342.08 180.352C341.35 176.25 340.255 175.02 337.13 174.733C335.345 174.61 334.818 174.692 334.777 175.102Z" fill="#2F4E56"/>
<path d="M414.827 193.19L414.949 211.77L416.653 211.893C418.804 212.057 420.589 211.113 421.522 209.391C422.171 208.201 422.252 206.643 422.252 193.313C422.252 179.163 422.212 178.506 421.4 177.112C420.386 175.307 419.128 174.651 416.653 174.651H414.746L414.827 193.19Z" fill="#2F4E56"/>
<path d="M448.828 182.854V191.057H451.262C453.412 191.057 453.859 190.934 454.711 189.991C455.968 188.596 456.334 186.832 456.293 182.198C456.252 176.743 454.711 174.651 450.694 174.651H448.828V182.854Z" fill="#2F4E56"/>
<path d="M486.236 185.397C485.952 187.734 485.506 191.631 485.14 194.133C484.816 196.594 484.532 199.178 484.532 199.793V200.941L487.088 200.818C488.995 200.736 489.563 200.572 489.482 200.121C489.401 199.793 489.117 197.209 488.792 194.379C487.697 184.412 487.25 181.213 486.966 181.213C486.804 181.213 486.479 183.1 486.236 185.397Z" fill="#2F4E56"/>
<path d="M255.984 174.938C255.822 175.061 255.7 183.469 255.7 193.6V211.975H257.77C260.366 211.975 261.178 211.524 262.273 209.391C263.206 207.709 263.206 207.422 263.206 193.108C263.206 179.163 263.166 178.507 262.354 177.112C261.908 176.333 261.097 175.43 260.529 175.184C259.474 174.651 256.431 174.446 255.984 174.938Z" fill="#2F4E56"/>
</g>
</g>
<defs>
<clipPath id="clip0_79_136">
<rect width="524" height="246" fill="white"/>
</clipPath>
<clipPath id="clip1_79_136">
<rect width="779" height="438" fill="white" transform="translate(-148 -94)"/>
</clipPath>
</defs>
</svg>
